<?xml version="1.0" encoding="UTF-8" standalone="no"?>
<!DOCTYPE svg PUBLIC "-//W3C//DTD SVG 1.1//EN" "http://www.w3.org/Graphics/SVG/1.1/DTD/svg11.dtd">
<!--Generated by Intaglio, www.PurgatoryDesign.com-->
<svg version="1.1" viewBox="0,0,576,734" width="576" height="734" xmlns="http://www.w3.org/2000/svg" xmlns:xlink="http://www.w3.org/1999/xlink" xmlns:intaglio="http://purgatorydesign.com/namespaces/intaglio" intaglio:grid="36,36,1,1,0.5,#9999bf,1,0,0,0" intaglio:guides="0.8,#f0f,1,1"><defs><linearGradient id="7ff76e7b9470" gradientUnits="userSpaceOnUse"><stop offset="0" stop-color="#eaeaea"/><stop offset="1" stop-color="#000"/></linearGradient></defs><g><text fill="#000100" font-family="Helvetica" font-size="36" transform="matrix(1,0,0,1,29,319.066)" xml:space="preserve"><tspan>CRY</tspan></text><text fill="#000100" font-family="Helvetica" font-size="36" transform="matrix(1,0,0,1,228.396,319.066)" xml:space="preserve"><tspan>CRY*</tspan></text><g><text fill="#000100" font-family="Helvetica" font-size="36" transform="matrix(1,0,0,1,440.5,319.233)" xml:space="preserve"><tspan>CRY</tspan></text><text fill="#000100" font-family="Helvetica" font-size="18" transform="matrix(1,0,0,1,517.531,307.135)" xml:space="preserve"><tspan font-family="Hiragino Sans" baseline-shift="super">◉</tspan></text></g><g><path fill="none" intaglio:arrow-end="1" stroke="#000100" stroke-width="4" d="M332.358,306.138 L409.315,306.138" intaglio:d="M332.358,306.138 L425.94,306.138"/><path fill="#000100" intaglio:omit="yes" d="M408.44,299.138 L425.94,306.138 L408.44,313.138"/></g><g><path fill="none" intaglio:arrow-end="1" stroke="#000100" stroke-width="4" d="M120.253,300.138 L197.21,300.138" intaglio:d="M120.253,300.138 L213.835,300.138"/><path fill="#000100" intaglio:omit="yes" d="M196.335,293.138 L213.835,300.138 L196.335,307.138"/></g><g><linearGradient id="7ff770cb9ac0" xlink:href="#7ff76e7b9470" x1="349.704" y1="174.066" x2="395.391" y2="292.541"/><path fill="url(#7ff770cb9ac0)" fill-rule="evenodd" d="M350.112,174.066 L349.704,292.541 L395.391,292.541 Z"/><text fill="#000100" font-family="Helvetica" font-size="30" text-anchor="middle" transform="matrix(1,0,0,1,370.266,137.12)" xml:space="preserve"><tspan>Magnetic</tspan><tspan x="0" y="36">Field</tspan></text></g><g><g><path fill="none" intaglio:arrow-end="1" stroke="#000100" stroke-width="4" d="M160.925,169.487 C155.909,181.19,183.951,191.722,167.043,195.965 C150.135,200.207,145.768,214.104,155.303,214.25 C164.838,214.396,191.916,242.629,175.401,242.775 C158.886,242.921,139.641,250.089,152.768,251.991 C165.895,253.893,165.895,255.941,165.895,264.425 C165.895,267.176,165.895,270.988,165.895,274.883" intaglio:d="M160.925,169.487 C155.909,181.19,183.951,191.722,167.043,195.965 C150.135,200.207,145.768,214.104,155.303,214.25 C164.838,214.396,191.916,242.629,175.401,242.775 C158.886,242.921,139.641,250.089,152.768,251.991 C165.895,253.893,165.895,255.941,165.895,264.425 C165.895,272.909,165.895,291.487,165.895,291.487"/><path fill="#000100" intaglio:omit="yes" d="M158.895,273.987 C161.228,279.821,163.561,285.654,165.895,291.487 C168.228,285.654,170.561,279.821,172.895,273.987"/></g><text fill="#000100" font-family="Helvetica" font-size="30" transform="matrix(1,0,0,1,131.198,151.063)" xml:space="preserve"><tspan>Light</tspan></text></g><text fill="#000100" font-family="Helvetica" font-size="14" text-anchor="middle" transform="matrix(1,0,0,1,263.452,344)" xml:space="preserve"><tspan>Radical pair of electrons</tspan><tspan x="0" y="18">in singlet state</tspan><tspan x="0" y="34">(antiparallel spins)</tspan></text><text fill="#000100" font-family="Helvetica" font-size="14" text-anchor="middle" transform="matrix(1,0,0,1,488.276,344)" xml:space="preserve"><tspan>Radical pair of electrons</tspan><tspan x="0" y="18">in triplet state</tspan><tspan x="0" y="34">(parallel spins)</tspan></text><g><path fill="none" intaglio:arrow-end="1" stroke="#000100" stroke-width="4" d="M213.835,316.734 L136.878,316.734" intaglio:d="M213.835,316.734 L120.253,316.734"/><path fill="#000100" intaglio:omit="yes" d="M137.753,323.734 L120.253,316.734 L137.753,309.734"/></g></g><g clip-path="url(#7ff77107c800)"><clipPath id="7ff77107c800"><path fill="#000" fill-opacity="0.35" d="M287,541.865 L504.797,541.865 L504.797,714.688 L287,714.688 Z"/></clipPath><g clip-path="url(#7ff7710bd7f0)"><clipPath id="7ff7710bd7f0"><path fill="#000" fill-opacity="0.35" d="M287,714.688 L505.002,714.688 L505.002,541.675 L287,541.675 Z"/></clipPath><image xlink:href="1.jpeg" width="2060" height="1448" transform="matrix(1.06046,0,0,1.06021,-1663.3,-130.994)"/></g></g></svg>
