<?xml version="1.0" encoding="UTF-8" standalone="no"?>
<!DOCTYPE svg PUBLIC "-//W3C//DTD SVG 1.1//EN" "http://www.w3.org/Graphics/SVG/1.1/DTD/svg11.dtd">
<!--Generated by Intaglio, www.PurgatoryDesign.com-->
<svg version="1.1" viewBox="0,0,734,576" width="734" height="576" xmlns="http://www.w3.org/2000/svg" xmlns:xlink="http://www.w3.org/1999/xlink" xmlns:intaglio="http://purgatorydesign.com/namespaces/intaglio" intaglio:grid="36,36,1,1,0.5,#9999bf,1,0,0,0" intaglio:guides="0.8,#f0f,1,1" intaglio:ruler="1,2,2,1,1,0,0"><text fill="#000100" font-family="Helvetica" font-size="12" transform="matrix(1,0,0,1,314.506,223.57)" xml:space="preserve"><tspan>Mezclar</tspan></text><text fill="#000100" font-family="Helvetica" font-size="12" transform="matrix(1,0,0,1,636.536,276.235)" xml:space="preserve"><tspan>Hornear por 20</tspan><tspan x="0" y="16">mins o hasta</tspan><tspan x="0" y="32">que doren</tspan></text><text fill="#000100" font-family="Helvetica" font-size="12" transform="matrix(1,0,0,1,507.352,368.301)" xml:space="preserve"><tspan>Añadir</tspan><tspan x="0" y="16">despacio y</tspan><tspan x="0" y="32">mezclar con</tspan><tspan x="0" y="48">manos hasta</tspan><tspan x="0" y="64">obtener</tspan><tspan x="0" y="80">masa suave</tspan></text><text fill="#000100" font-family="Helvetica" font-size="12" transform="matrix(1,0,0,1,233.7,83.7984)" xml:space="preserve"><tspan>Precalentar</tspan></text><text fill="#000100" font-family="Helvetica" font-size="12" transform="matrix(1,0,0,1,233.67,156.181)" xml:space="preserve"><tspan>Rallar</tspan></text><text fill="#000100" font-family="Helvetica" font-size="12" transform="matrix(1,0,0,1,25.783,83.7955)" xml:space="preserve"><tspan>Horno a 450° F</tspan></text><g><path fill="none" intaglio:arrow-start="9" intaglio:arrow-end="1" stroke="#000100" stroke-width="2" d="M161.406,79.6061 L215.031,79.6061" intaglio:d="M161.406,79.6061 L226.906,79.6061"/><path fill="none" intaglio:omit="yes" stroke="#000100" stroke-width="2" d="M161.406,73.3561 L161.406,85.8561"/><path fill="#000100" intaglio:omit="yes" d="M214.406,74.6061 L226.906,79.6061 L214.406,84.6061"/></g><path fill="none" stroke="#000100" stroke-width="2" d="M161.406,61.8803 L161.406,97.3803"/><path fill="none" stroke="#000100" stroke-width="2" d="M79.4061,97.1298 L162.406,97.1298"/><path fill="none" stroke="#000100" stroke-width="2" d="M79.4061,62.0823 L162.406,62.0823"/><text fill="#000100" font-family="Helvetica" font-size="12" transform="matrix(1,0,0,1,26.7264,139.076)" xml:space="preserve"><tspan>Queso campesino</tspan><tspan x="0" y="16">o mozzarella</tspan><tspan x="0" y="32">(200 g / 2 tazas)</tspan></text><g><path fill="none" intaglio:arrow-start="9" intaglio:arrow-end="1" stroke="#000100" stroke-width="2" d="M161.406,151.982 L215.031,151.982" intaglio:d="M161.406,151.982 L226.906,151.982"/><path fill="none" intaglio:omit="yes" stroke="#000100" stroke-width="2" d="M161.406,145.732 L161.406,158.232"/><path fill="#000100" intaglio:omit="yes" d="M214.406,146.982 L226.906,151.982 L214.406,156.982"/></g><path fill="none" stroke="#000100" stroke-width="2" d="M161.406,119.027 L161.406,185.027"/><path fill="none" stroke="#000100" stroke-width="2" d="M79.4061,184.562 L162.406,184.562"/><path fill="none" stroke="#000100" stroke-width="2" d="M109.68,119.403 L192.68,119.403"/><text fill="#000100" font-family="Helvetica" font-size="12" transform="matrix(1,0,0,1,25.8944,226.656)" xml:space="preserve"><tspan>Harina para arepas</tspan><tspan x="0" y="16">(150 g / 1 taza)</tspan></text><text fill="#000100" font-family="Helvetica" font-size="12" transform="matrix(1,0,0,1,26.5506,271.849)" xml:space="preserve"><tspan>Azúcar</tspan><tspan x="0" y="16">(30 g / 2 cucharadas)</tspan></text><text fill="#000100" font-family="Helvetica" font-size="12" transform="matrix(1,0,0,1,25.8944,316.879)" xml:space="preserve"><tspan>Polvo de hornear</tspan><tspan x="0" y="16">(5 g / 1 cucharadita)</tspan></text><text fill="#000100" font-family="Helvetica" font-size="12" transform="matrix(1,0,0,1,25.8944,384.466)" xml:space="preserve"><tspan>Huevo</tspan><tspan x="0" y="16">(110 g / ~1 grande)</tspan></text><text fill="#000100" font-family="Helvetica" font-size="12" transform="matrix(1,0,0,1,26.1639,420.989)" xml:space="preserve"><tspan>Sal</tspan><tspan x="0" y="16">(pizca)</tspan></text><g><path fill="none" intaglio:arrow-start="9" intaglio:arrow-end="1" stroke="#000100" stroke-width="2" d="M161.406,410.962 L297.317,410.962" intaglio:d="M161.406,410.962 L309.192,410.962"/><path fill="none" intaglio:omit="yes" stroke="#000100" stroke-width="2" d="M161.406,404.712 L161.406,417.212"/><path fill="#000100" intaglio:omit="yes" d="M296.692,405.962 L309.192,410.962 L296.692,415.962"/></g><path fill="none" stroke="#000100" stroke-width="2" d="M161.406,368.574 L161.406,446.882"/><path fill="none" stroke="#000100" stroke-width="2" d="M79.4061,446.329 L162.406,446.329"/><path fill="none" stroke="#000100" stroke-width="2" d="M79.4061,369.02 L162.406,369.02"/><text fill="#000100" font-family="Helvetica" font-size="12" transform="matrix(1,0,0,1,25.8944,483.732)" xml:space="preserve"><tspan>Leche</tspan><tspan x="0" y="16">(60 - 100 g)</tspan></text><g><path fill="none" intaglio:arrow-start="9" intaglio:arrow-end="1" stroke="#000100" stroke-width="2" d="M161.406,488.741 L431.517,488.741" intaglio:d="M161.406,488.741 L443.392,488.741"/><path fill="none" intaglio:omit="yes" stroke="#000100" stroke-width="2" d="M161.406,482.491 L161.406,494.991"/><path fill="#000100" intaglio:omit="yes" d="M430.892,483.741 L443.392,488.741 L430.892,493.741"/></g><path fill="none" stroke="#000100" stroke-width="2" d="M161.406,468.37 L161.406,509.167"/><path fill="none" stroke="#000100" stroke-width="2" d="M77.2264,508.879 L160.226,508.879"/><path fill="none" stroke="#000100" stroke-width="2" d="M78.4061,468.603 L161.406,468.603"/><g><path fill="none" intaglio:arrow-start="9" intaglio:arrow-end="1" stroke="#000100" stroke-width="2" d="M161.406,276.791 L215.031,276.791" intaglio:d="M161.406,276.791 L226.906,276.791"/><path fill="none" intaglio:omit="yes" stroke="#000100" stroke-width="2" d="M161.406,270.541 L161.406,283.041"/><path fill="#000100" intaglio:omit="yes" d="M214.406,271.791 L226.906,276.791 L214.406,281.791"/></g><path fill="none" stroke="#000100" stroke-width="2" d="M161.406,206.028 L161.406,347.747"/><path fill="none" stroke="#000100" stroke-width="2" d="M79.4061,346.747 L162.406,346.747"/><path fill="none" stroke="#000100" stroke-width="2" d="M79.4061,206.835 L162.406,206.835"/><g><path fill="none" intaglio:arrow-start="9" intaglio:arrow-end="1" stroke="#000100" stroke-width="2" d="M285.349,220.507 L297.317,220.507" intaglio:d="M285.349,220.507 L309.192,220.507"/><path fill="none" intaglio:omit="yes" stroke="#000100" stroke-width="2" d="M285.349,214.257 L285.349,226.757"/><path fill="#000100" intaglio:omit="yes" d="M296.692,215.507 L309.192,220.507 L296.692,225.507"/></g><path fill="none" stroke="#000100" stroke-width="2" d="M285.349,119.403 L285.349,321.887"/><path fill="none" stroke="#000100" stroke-width="2" d="M256.135,320.459 L286.349,320.459"/><path fill="none" stroke="#000100" stroke-width="2" d="M256.145,120.405 L286.358,120.405"/><text fill="#000100" font-family="Helvetica" font-size="12" transform="matrix(1,0,0,1,233.84,280.983)" xml:space="preserve"><tspan>Mezclar</tspan></text><text fill="#000100" font-family="Helvetica" font-size="12" transform="matrix(1,0,0,1,314.506,415.534)" xml:space="preserve"><tspan>Batir</tspan></text><g><path fill="none" intaglio:arrow-start="9" intaglio:arrow-end="1" stroke="#000100" stroke-width="2" d="M372.417,314.019 L384.386,314.019" intaglio:d="M372.417,314.019 L396.261,314.019"/><path fill="none" intaglio:omit="yes" stroke="#000100" stroke-width="2" d="M372.417,307.769 L372.417,320.269"/><path fill="#000100" intaglio:omit="yes" d="M383.761,309.019 L396.261,314.019 L383.761,319.019"/></g><path fill="none" stroke="#000100" stroke-width="2" d="M372.417,202.524 L372.417,425.819"/><path fill="none" stroke="#000100" stroke-width="2" d="M343.204,424.819 L373.417,424.819"/><path fill="none" stroke="#000100" stroke-width="2" d="M343.204,203.524 L373.417,203.524"/><g><path fill="none" intaglio:arrow-start="9" intaglio:arrow-end="1" stroke="#000100" stroke-width="2" d="M472.606,403.772 L484.574,403.772" intaglio:d="M472.606,403.772 L496.449,403.772"/><path fill="none" intaglio:omit="yes" stroke="#000100" stroke-width="2" d="M472.606,397.522 L472.606,410.022"/><path fill="#000100" intaglio:omit="yes" d="M483.949,398.772 L496.449,403.772 L483.949,408.772"/></g><path fill="none" stroke="#000100" stroke-width="2" d="M472.606,292.277 L472.606,515.572"/><path fill="none" stroke="#000100" stroke-width="2" d="M443.392,514.572 L473.606,514.572"/><path fill="none" stroke="#000100" stroke-width="2" d="M443.392,293.277 L473.606,293.277"/><g><path fill="none" intaglio:arrow-start="9" intaglio:arrow-end="1" stroke="#000100" stroke-width="2" d="M340.725,79.3556 L507.677,79.3556" intaglio:d="M340.725,79.3556 L519.552,79.3556"/><path fill="none" intaglio:omit="yes" stroke="#000100" stroke-width="2" d="M340.725,73.1056 L340.725,85.6056"/><path fill="#000100" intaglio:omit="yes" d="M507.052,74.3556 L519.552,79.3556 L507.052,84.3556"/></g><path fill="none" stroke="#000100" stroke-width="2" d="M340.725,61.6298 L340.725,97.1298"/><path fill="none" stroke="#000100" stroke-width="2" d="M258.725,96.8793 L341.725,96.8793"/><path fill="none" stroke="#000100" stroke-width="2" d="M258.725,61.8318 L341.725,61.8318"/><g><path fill="none" intaglio:arrow-start="9" intaglio:arrow-end="1" stroke="#000100" stroke-width="2" d="M597.498,286.594 L609.466,286.594" intaglio:d="M597.498,286.594 L621.341,286.594"/><path fill="none" intaglio:omit="yes" stroke="#000100" stroke-width="2" d="M597.498,280.344 L597.498,292.844"/><path fill="#000100" intaglio:omit="yes" d="M608.841,281.594 L621.341,286.594 L608.841,291.594"/></g><text fill="#000100" font-family="Helvetica" font-size="24" transform="matrix(1,0,0,1,592.543,565.154)" xml:space="preserve"><tspan>Almojábanas</tspan></text><g><path fill="none" stroke="#000100" stroke-width="2" d="M597.498,51.0867 L597.498,526.95"/><path fill="none" stroke="#000100" stroke-width="2" d="M568.284,525.864 L598.498,525.864"/><path fill="none" stroke="#000100" stroke-width="2" d="M568.284,52.1732 L598.498,52.1732"/></g><text fill="#000100" font-family="Helvetica" font-size="12" transform="matrix(1,0,0,1,405.18,318.364)" xml:space="preserve"><tspan>Mezclar</tspan></text></svg>
